<?xml version="1.0" encoding="UTF-8" standalone="no"?>
<!DOCTYPE svg PUBLIC "-//W3C//DTD SVG 1.1//EN"
 "http://www.w3.org/Graphics/SVG/1.1/DTD/svg11.dtd">
<!-- Generated by graphviz version 2.43.0 (0)
 -->
<!-- Title: G Pages: 1 -->
<svg width="2353pt" height="827pt"
 viewBox="0.00 0.00 2353.00 827.00" xmlns="http://www.w3.org/2000/svg" xmlns:xlink="http://www.w3.org/1999/xlink">
<g id="graph0" class="graph" transform="scale(1 1) rotate(0) translate(4 823)">
<title>G</title>
<polygon fill="white" stroke="transparent" points="-4,4 -4,-823 2349,-823 2349,4 -4,4"/>
<!-- NorthboundStale -->
<g id="node1" class="node">
<title>NorthboundStale</title>
<polygon fill="none" stroke="black" points="239.5,-117 99.5,-117 99.5,-81 239.5,-81 239.5,-117"/>
<text text-anchor="middle" x="169.5" y="-95.3" font-family="Times,serif" font-size="14.00">NorthboundStale</text>
</g>
<!-- OVNKubernetesNorthboundDatabaseLeaderError -->
<g id="node2" class="node">
<title>OVNKubernetesNorthboundDatabaseLeaderError</title>
<polygon fill="none" stroke="black" points="789,-117 415,-117 415,-81 789,-81 789,-117"/>
<text text-anchor="middle" x="602" y="-95.3" font-family="Times,serif" font-size="14.00">OVNKubernetesNorthboundDatabaseLeaderError</text>
</g>
<!-- NorthboundStale&#45;&gt;OVNKubernetesNorthboundDatabaseLeaderError -->
<g id="edge1" class="edge">
<title>NorthboundStale&#45;&gt;OVNKubernetesNorthboundDatabaseLeaderError</title>
<path fill="none" stroke="black" d="M239.67,-99C284.6,-99 345.62,-99 404.72,-99"/>
<polygon fill="black" stroke="black" points="404.95,-102.5 414.95,-99 404.95,-95.5 404.95,-102.5"/>
</g>
<!-- OVNKubernetesNorthboundDatabaseMultipleLeadersError -->
<g id="node3" class="node">
<title>OVNKubernetesNorthboundDatabaseMultipleLeadersError</title>
<polygon fill="none" stroke="black" points="1306,-144 865,-144 865,-108 1306,-108 1306,-144"/>
<text text-anchor="middle" x="1085.5" y="-122.3" font-family="Times,serif" font-size="14.00">OVNKubernetesNorthboundDatabaseMultipleLeadersError</text>
</g>
<!-- OVNKubernetesNorthboundDatabaseLeaderError&#45;&gt;OVNKubernetesNorthboundDatabaseMultipleLeadersError -->
<g id="edge2" class="edge">
<title>OVNKubernetesNorthboundDatabaseLeaderError&#45;&gt;OVNKubernetesNorthboundDatabaseMultipleLeadersError</title>
<path fill="none" stroke="black" d="M789.16,-109.44C810.62,-110.64 832.69,-111.88 854.63,-113.11"/>
<polygon fill="black" stroke="black" points="854.53,-116.61 864.71,-113.68 854.92,-109.62 854.53,-116.61"/>
</g>
<!-- OVNKubernetesNorthboundDatabaseClusterMemberError -->
<g id="node4" class="node">
<title>OVNKubernetesNorthboundDatabaseClusterMemberError</title>
<polygon fill="none" stroke="black" points="1304,-90 867,-90 867,-54 1304,-54 1304,-90"/>
<text text-anchor="middle" x="1085.5" y="-68.3" font-family="Times,serif" font-size="14.00">OVNKubernetesNorthboundDatabaseClusterMemberError</text>
</g>
<!-- OVNKubernetesNorthboundDatabaseLeaderError&#45;&gt;OVNKubernetesNorthboundDatabaseClusterMemberError -->
<g id="edge3" class="edge">
<title>OVNKubernetesNorthboundDatabaseLeaderError&#45;&gt;OVNKubernetesNorthboundDatabaseClusterMemberError</title>
<path fill="none" stroke="black" d="M789.16,-88.56C811.29,-87.32 834.07,-86.04 856.7,-84.77"/>
<polygon fill="black" stroke="black" points="856.94,-88.27 866.73,-84.21 856.55,-81.28 856.94,-88.27"/>
</g>
<!-- OVNKubernetesNorthboundDatabaseClusterIDError -->
<g id="node5" class="node">
<title>OVNKubernetesNorthboundDatabaseClusterIDError</title>
<polygon fill="none" stroke="black" points="1784.5,-144 1391.5,-144 1391.5,-108 1784.5,-108 1784.5,-144"/>
<text text-anchor="middle" x="1588" y="-122.3" font-family="Times,serif" font-size="14.00">OVNKubernetesNorthboundDatabaseClusterIDError</text>
</g>
<!-- OVNKubernetesNorthboundDatabaseMultipleLeadersError&#45;&gt;OVNKubernetesNorthboundDatabaseClusterIDError -->
<g id="edge4" class="edge">
<title>OVNKubernetesNorthboundDatabaseMultipleLeadersError&#45;&gt;OVNKubernetesNorthboundDatabaseClusterIDError</title>
<path fill="none" stroke="black" d="M1306.03,-126C1330.96,-126 1356.3,-126 1381.05,-126"/>
<polygon fill="black" stroke="black" points="1381.24,-129.5 1391.24,-126 1381.24,-122.5 1381.24,-129.5"/>
</g>
<!-- OVNKubernetesNorthboundDatabaseOutboundConnectionMissing -->
<g id="node6" class="node">
<title>OVNKubernetesNorthboundDatabaseOutboundConnectionMissing</title>
<polygon fill="none" stroke="black" points="1834,-90 1342,-90 1342,-54 1834,-54 1834,-90"/>
<text text-anchor="middle" x="1588" y="-68.3" font-family="Times,serif" font-size="14.00">OVNKubernetesNorthboundDatabaseOutboundConnectionMissing</text>
</g>
<!-- OVNKubernetesNorthboundDatabaseClusterMemberError&#45;&gt;OVNKubernetesNorthboundDatabaseOutboundConnectionMissing -->
<g id="edge5" class="edge">
<title>OVNKubernetesNorthboundDatabaseClusterMemberError&#45;&gt;OVNKubernetesNorthboundDatabaseOutboundConnectionMissing</title>
<path fill="none" stroke="black" d="M1304.21,-72C1313.4,-72 1322.66,-72 1331.92,-72"/>
<polygon fill="black" stroke="black" points="1331.98,-75.5 1341.98,-72 1331.98,-68.5 1331.98,-75.5"/>
</g>
<!-- OVNKubernetesNorthboundDatabaseInboundConnectionMissing -->
<g id="node7" class="node">
<title>OVNKubernetesNorthboundDatabaseInboundConnectionMissing</title>
<polygon fill="none" stroke="black" points="1828,-36 1348,-36 1348,0 1828,0 1828,-36"/>
<text text-anchor="middle" x="1588" y="-14.3" font-family="Times,serif" font-size="14.00">OVNKubernetesNorthboundDatabaseInboundConnectionMissing</text>
</g>
<!-- OVNKubernetesNorthboundDatabaseClusterMemberError&#45;&gt;OVNKubernetesNorthboundDatabaseInboundConnectionMissing -->
<g id="edge6" class="edge">
<title>OVNKubernetesNorthboundDatabaseClusterMemberError&#45;&gt;OVNKubernetesNorthboundDatabaseInboundConnectionMissing</title>
<path fill="none" stroke="black" d="M1253.51,-53.98C1303.74,-48.56 1359.03,-42.6 1409.9,-37.11"/>
<polygon fill="black" stroke="black" points="1410.44,-40.57 1420.01,-36.02 1409.69,-33.61 1410.44,-40.57"/>
</g>
<!-- OVNKubernetesNorthboundDatabaseOutboundConnectionError -->
<g id="node8" class="node">
<title>OVNKubernetesNorthboundDatabaseOutboundConnectionError</title>
<polygon fill="none" stroke="black" points="2345,-90 1870,-90 1870,-54 2345,-54 2345,-90"/>
<text text-anchor="middle" x="2107.5" y="-68.3" font-family="Times,serif" font-size="14.00">OVNKubernetesNorthboundDatabaseOutboundConnectionError</text>
</g>
<!-- OVNKubernetesNorthboundDatabaseOutboundConnectionMissing&#45;&gt;OVNKubernetesNorthboundDatabaseOutboundConnectionError -->
<g id="edge7" class="edge">
<title>OVNKubernetesNorthboundDatabaseOutboundConnectionMissing&#45;&gt;OVNKubernetesNorthboundDatabaseOutboundConnectionError</title>
<path fill="none" stroke="black" d="M1834.11,-72C1842.65,-72 1851.22,-72 1859.76,-72"/>
<polygon fill="black" stroke="black" points="1859.79,-75.5 1869.79,-72 1859.79,-68.5 1859.79,-75.5"/>
</g>
<!-- OVNKubernetesNorthboundDatabaseInboundConnectionError -->
<g id="node9" class="node">
<title>OVNKubernetesNorthboundDatabaseInboundConnectionError</title>
<polygon fill="none" stroke="black" points="2339,-36 1876,-36 1876,0 2339,0 2339,-36"/>
<text text-anchor="middle" x="2107.5" y="-14.3" font-family="Times,serif" font-size="14.00">OVNKubernetesNorthboundDatabaseInboundConnectionError</text>
</g>
<!-- OVNKubernetesNorthboundDatabaseInboundConnectionMissing&#45;&gt;OVNKubernetesNorthboundDatabaseInboundConnectionError -->
<g id="edge8" class="edge">
<title>OVNKubernetesNorthboundDatabaseInboundConnectionMissing&#45;&gt;OVNKubernetesNorthboundDatabaseInboundConnectionError</title>
<path fill="none" stroke="black" d="M1828.06,-18C1840.6,-18 1853.2,-18 1865.74,-18"/>
<polygon fill="black" stroke="black" points="1865.78,-21.5 1875.78,-18 1865.78,-14.5 1865.78,-21.5"/>
</g>
<!-- SouthboundStale -->
<g id="node10" class="node">
<title>SouthboundStale</title>
<polygon fill="none" stroke="black" points="239.5,-279 99.5,-279 99.5,-243 239.5,-243 239.5,-279"/>
<text text-anchor="middle" x="169.5" y="-257.3" font-family="Times,serif" font-size="14.00">SouthboundStale</text>
</g>
<!-- OVNKubernetesSouthboundDatabaseLeaderError -->
<g id="node11" class="node">
<title>OVNKubernetesSouthboundDatabaseLeaderError</title>
<polygon fill="none" stroke="black" points="789,-279 415,-279 415,-243 789,-243 789,-279"/>
<text text-anchor="middle" x="602" y="-257.3" font-family="Times,serif" font-size="14.00">OVNKubernetesSouthboundDatabaseLeaderError</text>
</g>
<!-- SouthboundStale&#45;&gt;OVNKubernetesSouthboundDatabaseLeaderError -->
<g id="edge9" class="edge">
<title>SouthboundStale&#45;&gt;OVNKubernetesSouthboundDatabaseLeaderError</title>
<path fill="none" stroke="black" d="M239.67,-261C284.6,-261 345.62,-261 404.72,-261"/>
<polygon fill="black" stroke="black" points="404.95,-264.5 414.95,-261 404.95,-257.5 404.95,-264.5"/>
</g>
<!-- OVNKubernetesSouthboundDatabaseMultipleLeadersError -->
<g id="node12" class="node">
<title>OVNKubernetesSouthboundDatabaseMultipleLeadersError</title>
<polygon fill="none" stroke="black" points="1306,-306 865,-306 865,-270 1306,-270 1306,-306"/>
<text text-anchor="middle" x="1085.5" y="-284.3" font-family="Times,serif" font-size="14.00">OVNKubernetesSouthboundDatabaseMultipleLeadersError</text>
</g>
<!-- OVNKubernetesSouthboundDatabaseLeaderError&#45;&gt;OVNKubernetesSouthboundDatabaseMultipleLeadersError -->
<g id="edge10" class="edge">
<title>OVNKubernetesSouthboundDatabaseLeaderError&#45;&gt;OVNKubernetesSouthboundDatabaseMultipleLeadersError</title>
<path fill="none" stroke="black" d="M789.16,-271.44C810.62,-272.64 832.69,-273.88 854.63,-275.11"/>
<polygon fill="black" stroke="black" points="854.53,-278.61 864.71,-275.68 854.92,-271.62 854.53,-278.61"/>
</g>
<!-- OVNKubernetesSouthboundDatabaseClusterMemberError -->
<g id="node13" class="node">
<title>OVNKubernetesSouthboundDatabaseClusterMemberError</title>
<polygon fill="none" stroke="black" points="1304,-252 867,-252 867,-216 1304,-216 1304,-252"/>
<text text-anchor="middle" x="1085.5" y="-230.3" font-family="Times,serif" font-size="14.00">OVNKubernetesSouthboundDatabaseClusterMemberError</text>
</g>
<!-- OVNKubernetesSouthboundDatabaseLeaderError&#45;&gt;OVNKubernetesSouthboundDatabaseClusterMemberError -->
<g id="edge11" class="edge">
<title>OVNKubernetesSouthboundDatabaseLeaderError&#45;&gt;OVNKubernetesSouthboundDatabaseClusterMemberError</title>
<path fill="none" stroke="black" d="M789.16,-250.56C811.29,-249.32 834.07,-248.04 856.7,-246.77"/>
<polygon fill="black" stroke="black" points="856.94,-250.27 866.73,-246.21 856.55,-243.28 856.94,-250.27"/>
</g>
<!-- OVNKubernetesSouthboundDatabaseClusterIDError -->
<g id="node14" class="node">
<title>OVNKubernetesSouthboundDatabaseClusterIDError</title>
<polygon fill="none" stroke="black" points="1784.5,-306 1391.5,-306 1391.5,-270 1784.5,-270 1784.5,-306"/>
<text text-anchor="middle" x="1588" y="-284.3" font-family="Times,serif" font-size="14.00">OVNKubernetesSouthboundDatabaseClusterIDError</text>
</g>
<!-- OVNKubernetesSouthboundDatabaseMultipleLeadersError&#45;&gt;OVNKubernetesSouthboundDatabaseClusterIDError -->
<g id="edge12" class="edge">
<title>OVNKubernetesSouthboundDatabaseMultipleLeadersError&#45;&gt;OVNKubernetesSouthboundDatabaseClusterIDError</title>
<path fill="none" stroke="black" d="M1306.03,-288C1330.96,-288 1356.3,-288 1381.05,-288"/>
<polygon fill="black" stroke="black" points="1381.24,-291.5 1391.24,-288 1381.24,-284.5 1381.24,-291.5"/>
</g>
<!-- OVNKubernetesSouthboundDatabaseOutboundConnectionMissing -->
<g id="node15" class="node">
<title>OVNKubernetesSouthboundDatabaseOutboundConnectionMissing</title>
<polygon fill="none" stroke="black" points="1834,-252 1342,-252 1342,-216 1834,-216 1834,-252"/>
<text text-anchor="middle" x="1588" y="-230.3" font-family="Times,serif" font-size="14.00">OVNKubernetesSouthboundDatabaseOutboundConnectionMissing</text>
</g>
<!-- OVNKubernetesSouthboundDatabaseClusterMemberError&#45;&gt;OVNKubernetesSouthboundDatabaseOutboundConnectionMissing -->
<g id="edge13" class="edge">
<title>OVNKubernetesSouthboundDatabaseClusterMemberError&#45;&gt;OVNKubernetesSouthboundDatabaseOutboundConnectionMissing</title>
<path fill="none" stroke="black" d="M1304.21,-234C1313.4,-234 1322.66,-234 1331.92,-234"/>
<polygon fill="black" stroke="black" points="1331.98,-237.5 1341.98,-234 1331.98,-230.5 1331.98,-237.5"/>
</g>
<!-- OVNKubernetesSouthboundDatabaseInboundConnectionMissing -->
<g id="node16" class="node">
<title>OVNKubernetesSouthboundDatabaseInboundConnectionMissing</title>
<polygon fill="none" stroke="black" points="1828,-198 1348,-198 1348,-162 1828,-162 1828,-198"/>
<text text-anchor="middle" x="1588" y="-176.3" font-family="Times,serif" font-size="14.00">OVNKubernetesSouthboundDatabaseInboundConnectionMissing</text>
</g>
<!-- OVNKubernetesSouthboundDatabaseClusterMemberError&#45;&gt;OVNKubernetesSouthboundDatabaseInboundConnectionMissing -->
<g id="edge14" class="edge">
<title>OVNKubernetesSouthboundDatabaseClusterMemberError&#45;&gt;OVNKubernetesSouthboundDatabaseInboundConnectionMissing</title>
<path fill="none" stroke="black" d="M1253.51,-215.98C1303.74,-210.56 1359.03,-204.6 1409.9,-199.11"/>
<polygon fill="black" stroke="black" points="1410.44,-202.57 1420.01,-198.02 1409.69,-195.61 1410.44,-202.57"/>
</g>
<!-- OVNKubernetesSouthboundDatabaseOutboundConnectionError -->
<g id="node17" class="node">
<title>OVNKubernetesSouthboundDatabaseOutboundConnectionError</title>
<polygon fill="none" stroke="black" points="2345,-252 1870,-252 1870,-216 2345,-216 2345,-252"/>
<text text-anchor="middle" x="2107.5" y="-230.3" font-family="Times,serif" font-size="14.00">OVNKubernetesSouthboundDatabaseOutboundConnectionError</text>
</g>
<!-- OVNKubernetesSouthboundDatabaseOutboundConnectionMissing&#45;&gt;OVNKubernetesSouthboundDatabaseOutboundConnectionError -->
<g id="edge15" class="edge">
<title>OVNKubernetesSouthboundDatabaseOutboundConnectionMissing&#45;&gt;OVNKubernetesSouthboundDatabaseOutboundConnectionError</title>
<path fill="none" stroke="black" d="M1834.11,-234C1842.65,-234 1851.22,-234 1859.76,-234"/>
<polygon fill="black" stroke="black" points="1859.79,-237.5 1869.79,-234 1859.79,-230.5 1859.79,-237.5"/>
</g>
<!-- OVNKubernetesSouthboundDatabaseInboundConnectionError -->
<g id="node18" class="node">
<title>OVNKubernetesSouthboundDatabaseInboundConnectionError</title>
<polygon fill="none" stroke="black" points="2339,-198 1876,-198 1876,-162 2339,-162 2339,-198"/>
<text text-anchor="middle" x="2107.5" y="-176.3" font-family="Times,serif" font-size="14.00">OVNKubernetesSouthboundDatabaseInboundConnectionError</text>
</g>
<!-- OVNKubernetesSouthboundDatabaseInboundConnectionMissing&#45;&gt;OVNKubernetesSouthboundDatabaseInboundConnectionError -->
<g id="edge16" class="edge">
<title>OVNKubernetesSouthboundDatabaseInboundConnectionMissing&#45;&gt;OVNKubernetesSouthboundDatabaseInboundConnectionError</title>
<path fill="none" stroke="black" d="M1828.06,-180C1840.6,-180 1853.2,-180 1865.74,-180"/>
<polygon fill="black" stroke="black" points="1865.78,-183.5 1875.78,-180 1865.78,-176.5 1865.78,-183.5"/>
</g>
<!-- NoOvnMasterLeader -->
<g id="node19" class="node">
<title>NoOvnMasterLeader</title>
<polygon fill="none" stroke="black" points="252.5,-333 86.5,-333 86.5,-297 252.5,-297 252.5,-333"/>
<text text-anchor="middle" x="169.5" y="-311.3" font-family="Times,serif" font-size="14.00">NoOvnMasterLeader</text>
</g>
<!-- NoRunningOvnMaster -->
<g id="node20" class="node">
<title>NoRunningOvnMaster</title>
<polygon fill="none" stroke="black" points="690,-333 514,-333 514,-297 690,-297 690,-333"/>
<text text-anchor="middle" x="602" y="-311.3" font-family="Times,serif" font-size="14.00">NoRunningOvnMaster</text>
</g>
<!-- NoOvnMasterLeader&#45;&gt;NoRunningOvnMaster -->
<g id="edge17" class="edge">
<title>NoOvnMasterLeader&#45;&gt;NoRunningOvnMaster</title>
<path fill="none" stroke="black" d="M252.74,-315C324.33,-315 428.2,-315 503.86,-315"/>
<polygon fill="black" stroke="black" points="503.88,-318.5 513.88,-315 503.88,-311.5 503.88,-318.5"/>
</g>
<!-- V4SubnetAllocationThresholdExceeded -->
<g id="node21" class="node">
<title>V4SubnetAllocationThresholdExceeded</title>
<polygon fill="none" stroke="black" points="318,-387 21,-387 21,-351 318,-351 318,-387"/>
<text text-anchor="middle" x="169.5" y="-365.3" font-family="Times,serif" font-size="14.00">V4SubnetAllocationThresholdExceeded</text>
</g>
<!-- V6SubnetAllocationThresholdExceeded -->
<g id="node22" class="node">
<title>V6SubnetAllocationThresholdExceeded</title>
<polygon fill="none" stroke="black" points="318,-441 21,-441 21,-405 318,-405 318,-441"/>
<text text-anchor="middle" x="169.5" y="-419.3" font-family="Times,serif" font-size="14.00">V6SubnetAllocationThresholdExceeded</text>
</g>
<!-- OVNKubernetesNorthdInactive -->
<g id="node23" class="node">
<title>OVNKubernetesNorthdInactive</title>
<polygon fill="none" stroke="black" points="289.5,-495 49.5,-495 49.5,-459 289.5,-459 289.5,-495"/>
<text text-anchor="middle" x="169.5" y="-473.3" font-family="Times,serif" font-size="14.00">OVNKubernetesNorthdInactive</text>
</g>
<!-- OVNKubernetesNodePodAddError -->
<g id="node24" class="node">
<title>OVNKubernetesNodePodAddError</title>
<polygon fill="none" stroke="black" points="301,-549 38,-549 38,-513 301,-513 301,-549"/>
<text text-anchor="middle" x="169.5" y="-527.3" font-family="Times,serif" font-size="14.00">OVNKubernetesNodePodAddError</text>
</g>
<!-- OVNKubernetesNodePodDeleteError -->
<g id="node25" class="node">
<title>OVNKubernetesNodePodDeleteError</title>
<polygon fill="none" stroke="black" points="310,-603 29,-603 29,-567 310,-567 310,-603"/>
<text text-anchor="middle" x="169.5" y="-581.3" font-family="Times,serif" font-size="14.00">OVNKubernetesNodePodDeleteError</text>
</g>
<!-- NodeWithoutOVNKubeNodePodRunning -->
<g id="node26" class="node">
<title>NodeWithoutOVNKubeNodePodRunning</title>
<polygon fill="none" stroke="black" points="322,-657 17,-657 17,-621 322,-621 322,-657"/>
<text text-anchor="middle" x="169.5" y="-635.3" font-family="Times,serif" font-size="14.00">NodeWithoutOVNKubeNodePodRunning</text>
</g>
<!-- OVNKubernetesControllerDisconnectedSouthboundDatabase -->
<g id="node27" class="node">
<title>OVNKubernetesControllerDisconnectedSouthboundDatabase</title>
<polygon fill="none" stroke="black" points="829,-657 375,-657 375,-621 829,-621 829,-657"/>
<text text-anchor="middle" x="602" y="-635.3" font-family="Times,serif" font-size="14.00">OVNKubernetesControllerDisconnectedSouthboundDatabase</text>
</g>
<!-- NodeWithoutOVNKubeNodePodRunning&#45;&gt;OVNKubernetesControllerDisconnectedSouthboundDatabase -->
<g id="edge18" class="edge">
<title>NodeWithoutOVNKubeNodePodRunning&#45;&gt;OVNKubernetesControllerDisconnectedSouthboundDatabase</title>
<path fill="none" stroke="black" d="M322.28,-639C336.01,-639 350.12,-639 364.36,-639"/>
<polygon fill="black" stroke="black" points="364.75,-642.5 374.75,-639 364.75,-635.5 364.75,-642.5"/>
</g>
<!-- OVNKubernetesNodeOVSOverflowUserspace -->
<g id="node28" class="node">
<title>OVNKubernetesNodeOVSOverflowUserspace</title>
<polygon fill="none" stroke="black" points="339,-711 0,-711 0,-675 339,-675 339,-711"/>
<text text-anchor="middle" x="169.5" y="-689.3" font-family="Times,serif" font-size="14.00">OVNKubernetesNodeOVSOverflowUserspace</text>
</g>
<!-- OVNKubernetesNodeOVSOverflowKernel -->
<g id="node29" class="node">
<title>OVNKubernetesNodeOVSOverflowKernel</title>
<polygon fill="none" stroke="black" points="325,-765 14,-765 14,-729 325,-729 325,-765"/>
<text text-anchor="middle" x="169.5" y="-743.3" font-family="Times,serif" font-size="14.00">OVNKubernetesNodeOVSOverflowKernel</text>
</g>
<!-- OVNKubernetesResourceRetryFailure -->
<g id="node30" class="node">
<title>OVNKubernetesResourceRetryFailure</title>
<polygon fill="none" stroke="black" points="313.5,-819 25.5,-819 25.5,-783 313.5,-783 313.5,-819"/>
<text text-anchor="middle" x="169.5" y="-797.3" font-family="Times,serif" font-size="14.00">OVNKubernetesResourceRetryFailure</text>
</g>
</g>
</svg>
