<?xml version="1.0" encoding="UTF-8" standalone="no"?>
<!DOCTYPE svg PUBLIC "-//W3C//DTD SVG 1.1//EN"
 "http://www.w3.org/Graphics/SVG/1.1/DTD/svg11.dtd">
<!-- Generated by graphviz version 7.1.0 (0)
 -->
<!-- Title: G Pages: 1 -->
<svg width="2353pt" height="881pt"
 viewBox="0.00 0.00 2353.00 881.00" xmlns="http://www.w3.org/2000/svg" xmlns:xlink="http://www.w3.org/1999/xlink">
<g id="graph0" class="graph" transform="scale(1 1) rotate(0) translate(4 877)">
<title>G</title>
<polygon fill="white" stroke="none" points="-4,4 -4,-877 2349,-877 2349,4 -4,4"/>
<!-- NorthboundStale -->
<g id="node1" class="node">
<title>NorthboundStale</title>
<polygon fill="none" stroke="black" points="239.5,-117 99.5,-117 99.5,-81 239.5,-81 239.5,-117"/>
<text text-anchor="middle" x="169.5" y="-95.3" font-family="Times,serif" font-size="14.00">NorthboundStale</text>
</g>
<!-- OVNKubernetesNorthboundDatabaseLeaderError -->
<g id="node2" class="node">
<title>OVNKubernetesNorthboundDatabaseLeaderError</title>
<polygon fill="none" stroke="black" points="789,-117 415,-117 415,-81 789,-81 789,-117"/>
<text text-anchor="middle" x="602" y="-95.3" font-family="Times,serif" font-size="14.00">OVNKubernetesNorthboundDatabaseLeaderError</text>
</g>
<!-- NorthboundStale&#45;&gt;OVNKubernetesNorthboundDatabaseLeaderError -->
<g id="edge1" class="edge">
<title>NorthboundStale&#45;&gt;OVNKubernetesNorthboundDatabaseLeaderError</title>
<path fill="none" stroke="black" d="M239.67,-99C284.33,-99 344.87,-99 403.62,-99"/>
<polygon fill="black" stroke="black" points="403.44,-102.5 413.44,-99 403.44,-95.5 403.44,-102.5"/>
</g>
<!-- OVNKubernetesNorthboundDatabaseMultipleLeadersError -->
<g id="node3" class="node">
<title>OVNKubernetesNorthboundDatabaseMultipleLeadersError</title>
<polygon fill="none" stroke="black" points="1306,-144 865,-144 865,-108 1306,-108 1306,-144"/>
<text text-anchor="middle" x="1085.5" y="-122.3" font-family="Times,serif" font-size="14.00">OVNKubernetesNorthboundDatabaseMultipleLeadersError</text>
</g>
<!-- OVNKubernetesNorthboundDatabaseLeaderError&#45;&gt;OVNKubernetesNorthboundDatabaseMultipleLeadersError -->
<g id="edge2" class="edge">
<title>OVNKubernetesNorthboundDatabaseLeaderError&#45;&gt;OVNKubernetesNorthboundDatabaseMultipleLeadersError</title>
<path fill="none" stroke="black" d="M789.16,-109.44C810.23,-110.62 831.89,-111.83 853.45,-113.04"/>
<polygon fill="black" stroke="black" points="853.01,-116.52 863.19,-113.59 853.41,-109.54 853.01,-116.52"/>
</g>
<!-- OVNKubernetesNorthboundDatabaseClusterMemberError -->
<g id="node4" class="node">
<title>OVNKubernetesNorthboundDatabaseClusterMemberError</title>
<polygon fill="none" stroke="black" points="1304,-90 867,-90 867,-54 1304,-54 1304,-90"/>
<text text-anchor="middle" x="1085.5" y="-68.3" font-family="Times,serif" font-size="14.00">OVNKubernetesNorthboundDatabaseClusterMemberError</text>
</g>
<!-- OVNKubernetesNorthboundDatabaseLeaderError&#45;&gt;OVNKubernetesNorthboundDatabaseClusterMemberError -->
<g id="edge3" class="edge">
<title>OVNKubernetesNorthboundDatabaseLeaderError&#45;&gt;OVNKubernetesNorthboundDatabaseClusterMemberError</title>
<path fill="none" stroke="black" d="M789.16,-88.56C810.89,-87.34 833.25,-86.09 855.48,-84.84"/>
<polygon fill="black" stroke="black" points="855.43,-88.35 865.22,-84.3 855.04,-81.36 855.43,-88.35"/>
</g>
<!-- OVNKubernetesNorthboundDatabaseClusterIDError -->
<g id="node5" class="node">
<title>OVNKubernetesNorthboundDatabaseClusterIDError</title>
<polygon fill="none" stroke="black" points="1784.5,-144 1391.5,-144 1391.5,-108 1784.5,-108 1784.5,-144"/>
<text text-anchor="middle" x="1588" y="-122.3" font-family="Times,serif" font-size="14.00">OVNKubernetesNorthboundDatabaseClusterIDError</text>
</g>
<!-- OVNKubernetesNorthboundDatabaseMultipleLeadersError&#45;&gt;OVNKubernetesNorthboundDatabaseClusterIDError -->
<g id="edge4" class="edge">
<title>OVNKubernetesNorthboundDatabaseMultipleLeadersError&#45;&gt;OVNKubernetesNorthboundDatabaseClusterIDError</title>
<path fill="none" stroke="black" d="M1306.39,-126C1330.75,-126 1355.49,-126 1379.69,-126"/>
<polygon fill="black" stroke="black" points="1379.62,-129.5 1389.62,-126 1379.62,-122.5 1379.62,-129.5"/>
</g>
<!-- OVNKubernetesNorthboundDatabaseOutboundConnectionMissing -->
<g id="node6" class="node">
<title>OVNKubernetesNorthboundDatabaseOutboundConnectionMissing</title>
<polygon fill="none" stroke="black" points="1834,-90 1342,-90 1342,-54 1834,-54 1834,-90"/>
<text text-anchor="middle" x="1588" y="-68.3" font-family="Times,serif" font-size="14.00">OVNKubernetesNorthboundDatabaseOutboundConnectionMissing</text>
</g>
<!-- OVNKubernetesNorthboundDatabaseClusterMemberError&#45;&gt;OVNKubernetesNorthboundDatabaseOutboundConnectionMissing -->
<g id="edge5" class="edge">
<title>OVNKubernetesNorthboundDatabaseClusterMemberError&#45;&gt;OVNKubernetesNorthboundDatabaseOutboundConnectionMissing</title>
<path fill="none" stroke="black" d="M1304.21,-72C1312.82,-72 1321.49,-72 1330.17,-72"/>
<polygon fill="black" stroke="black" points="1330.06,-75.5 1340.06,-72 1330.06,-68.5 1330.06,-75.5"/>
</g>
<!-- OVNKubernetesNorthboundDatabaseInboundConnectionMissing -->
<g id="node7" class="node">
<title>OVNKubernetesNorthboundDatabaseInboundConnectionMissing</title>
<polygon fill="none" stroke="black" points="1828,-36 1348,-36 1348,0 1828,0 1828,-36"/>
<text text-anchor="middle" x="1588" y="-14.3" font-family="Times,serif" font-size="14.00">OVNKubernetesNorthboundDatabaseInboundConnectionMissing</text>
</g>
<!-- OVNKubernetesNorthboundDatabaseClusterMemberError&#45;&gt;OVNKubernetesNorthboundDatabaseInboundConnectionMissing -->
<g id="edge6" class="edge">
<title>OVNKubernetesNorthboundDatabaseClusterMemberError&#45;&gt;OVNKubernetesNorthboundDatabaseInboundConnectionMissing</title>
<path fill="none" stroke="black" d="M1257.69,-53.53C1305.1,-48.42 1356.72,-42.85 1404.73,-37.67"/>
<polygon fill="black" stroke="black" points="1404.81,-41.18 1414.37,-36.63 1404.06,-34.22 1404.81,-41.18"/>
</g>
<!-- OVNKubernetesNorthboundDatabaseOutboundConnectionError -->
<g id="node8" class="node">
<title>OVNKubernetesNorthboundDatabaseOutboundConnectionError</title>
<polygon fill="none" stroke="black" points="2345,-90 1870,-90 1870,-54 2345,-54 2345,-90"/>
<text text-anchor="middle" x="2107.5" y="-68.3" font-family="Times,serif" font-size="14.00">OVNKubernetesNorthboundDatabaseOutboundConnectionError</text>
</g>
<!-- OVNKubernetesNorthboundDatabaseOutboundConnectionMissing&#45;&gt;OVNKubernetesNorthboundDatabaseOutboundConnectionError -->
<g id="edge7" class="edge">
<title>OVNKubernetesNorthboundDatabaseOutboundConnectionMissing&#45;&gt;OVNKubernetesNorthboundDatabaseOutboundConnectionError</title>
<path fill="none" stroke="black" d="M1834.49,-72C1842.47,-72 1850.47,-72 1858.46,-72"/>
<polygon fill="black" stroke="black" points="1858.23,-75.5 1868.23,-72 1858.23,-68.5 1858.23,-75.5"/>
</g>
<!-- OVNKubernetesNorthboundDatabaseInboundConnectionError -->
<g id="node9" class="node">
<title>OVNKubernetesNorthboundDatabaseInboundConnectionError</title>
<polygon fill="none" stroke="black" points="2339,-36 1876,-36 1876,0 2339,0 2339,-36"/>
<text text-anchor="middle" x="2107.5" y="-14.3" font-family="Times,serif" font-size="14.00">OVNKubernetesNorthboundDatabaseInboundConnectionError</text>
</g>
<!-- OVNKubernetesNorthboundDatabaseInboundConnectionMissing&#45;&gt;OVNKubernetesNorthboundDatabaseInboundConnectionError -->
<g id="edge8" class="edge">
<title>OVNKubernetesNorthboundDatabaseInboundConnectionMissing&#45;&gt;OVNKubernetesNorthboundDatabaseInboundConnectionError</title>
<path fill="none" stroke="black" d="M1828.44,-18C1840.37,-18 1852.35,-18 1864.29,-18"/>
<polygon fill="black" stroke="black" points="1864.21,-21.5 1874.21,-18 1864.21,-14.5 1864.21,-21.5"/>
</g>
<!-- SouthboundStale -->
<g id="node10" class="node">
<title>SouthboundStale</title>
<polygon fill="none" stroke="black" points="239.5,-279 99.5,-279 99.5,-243 239.5,-243 239.5,-279"/>
<text text-anchor="middle" x="169.5" y="-257.3" font-family="Times,serif" font-size="14.00">SouthboundStale</text>
</g>
<!-- OVNKubernetesSouthboundDatabaseLeaderError -->
<g id="node11" class="node">
<title>OVNKubernetesSouthboundDatabaseLeaderError</title>
<polygon fill="none" stroke="black" points="789,-279 415,-279 415,-243 789,-243 789,-279"/>
<text text-anchor="middle" x="602" y="-257.3" font-family="Times,serif" font-size="14.00">OVNKubernetesSouthboundDatabaseLeaderError</text>
</g>
<!-- SouthboundStale&#45;&gt;OVNKubernetesSouthboundDatabaseLeaderError -->
<g id="edge9" class="edge">
<title>SouthboundStale&#45;&gt;OVNKubernetesSouthboundDatabaseLeaderError</title>
<path fill="none" stroke="black" d="M239.67,-261C284.33,-261 344.87,-261 403.62,-261"/>
<polygon fill="black" stroke="black" points="403.44,-264.5 413.44,-261 403.44,-257.5 403.44,-264.5"/>
</g>
<!-- OVNKubernetesSouthboundDatabaseMultipleLeadersError -->
<g id="node12" class="node">
<title>OVNKubernetesSouthboundDatabaseMultipleLeadersError</title>
<polygon fill="none" stroke="black" points="1306,-306 865,-306 865,-270 1306,-270 1306,-306"/>
<text text-anchor="middle" x="1085.5" y="-284.3" font-family="Times,serif" font-size="14.00">OVNKubernetesSouthboundDatabaseMultipleLeadersError</text>
</g>
<!-- OVNKubernetesSouthboundDatabaseLeaderError&#45;&gt;OVNKubernetesSouthboundDatabaseMultipleLeadersError -->
<g id="edge10" class="edge">
<title>OVNKubernetesSouthboundDatabaseLeaderError&#45;&gt;OVNKubernetesSouthboundDatabaseMultipleLeadersError</title>
<path fill="none" stroke="black" d="M789.16,-271.44C810.23,-272.62 831.89,-273.83 853.45,-275.04"/>
<polygon fill="black" stroke="black" points="853.01,-278.52 863.19,-275.59 853.41,-271.54 853.01,-278.52"/>
</g>
<!-- OVNKubernetesSouthboundDatabaseClusterMemberError -->
<g id="node13" class="node">
<title>OVNKubernetesSouthboundDatabaseClusterMemberError</title>
<polygon fill="none" stroke="black" points="1304,-252 867,-252 867,-216 1304,-216 1304,-252"/>
<text text-anchor="middle" x="1085.5" y="-230.3" font-family="Times,serif" font-size="14.00">OVNKubernetesSouthboundDatabaseClusterMemberError</text>
</g>
<!-- OVNKubernetesSouthboundDatabaseLeaderError&#45;&gt;OVNKubernetesSouthboundDatabaseClusterMemberError -->
<g id="edge11" class="edge">
<title>OVNKubernetesSouthboundDatabaseLeaderError&#45;&gt;OVNKubernetesSouthboundDatabaseClusterMemberError</title>
<path fill="none" stroke="black" d="M789.16,-250.56C810.89,-249.34 833.25,-248.09 855.48,-246.84"/>
<polygon fill="black" stroke="black" points="855.43,-250.35 865.22,-246.3 855.04,-243.36 855.43,-250.35"/>
</g>
<!-- OVNKubernetesSouthboundDatabaseClusterIDError -->
<g id="node14" class="node">
<title>OVNKubernetesSouthboundDatabaseClusterIDError</title>
<polygon fill="none" stroke="black" points="1784.5,-306 1391.5,-306 1391.5,-270 1784.5,-270 1784.5,-306"/>
<text text-anchor="middle" x="1588" y="-284.3" font-family="Times,serif" font-size="14.00">OVNKubernetesSouthboundDatabaseClusterIDError</text>
</g>
<!-- OVNKubernetesSouthboundDatabaseMultipleLeadersError&#45;&gt;OVNKubernetesSouthboundDatabaseClusterIDError -->
<g id="edge12" class="edge">
<title>OVNKubernetesSouthboundDatabaseMultipleLeadersError&#45;&gt;OVNKubernetesSouthboundDatabaseClusterIDError</title>
<path fill="none" stroke="black" d="M1306.39,-288C1330.75,-288 1355.49,-288 1379.69,-288"/>
<polygon fill="black" stroke="black" points="1379.62,-291.5 1389.62,-288 1379.62,-284.5 1379.62,-291.5"/>
</g>
<!-- OVNKubernetesSouthboundDatabaseOutboundConnectionMissing -->
<g id="node15" class="node">
<title>OVNKubernetesSouthboundDatabaseOutboundConnectionMissing</title>
<polygon fill="none" stroke="black" points="1834,-252 1342,-252 1342,-216 1834,-216 1834,-252"/>
<text text-anchor="middle" x="1588" y="-230.3" font-family="Times,serif" font-size="14.00">OVNKubernetesSouthboundDatabaseOutboundConnectionMissing</text>
</g>
<!-- OVNKubernetesSouthboundDatabaseClusterMemberError&#45;&gt;OVNKubernetesSouthboundDatabaseOutboundConnectionMissing -->
<g id="edge13" class="edge">
<title>OVNKubernetesSouthboundDatabaseClusterMemberError&#45;&gt;OVNKubernetesSouthboundDatabaseOutboundConnectionMissing</title>
<path fill="none" stroke="black" d="M1304.21,-234C1312.82,-234 1321.49,-234 1330.17,-234"/>
<polygon fill="black" stroke="black" points="1330.06,-237.5 1340.06,-234 1330.06,-230.5 1330.06,-237.5"/>
</g>
<!-- OVNKubernetesSouthboundDatabaseInboundConnectionMissing -->
<g id="node16" class="node">
<title>OVNKubernetesSouthboundDatabaseInboundConnectionMissing</title>
<polygon fill="none" stroke="black" points="1828,-198 1348,-198 1348,-162 1828,-162 1828,-198"/>
<text text-anchor="middle" x="1588" y="-176.3" font-family="Times,serif" font-size="14.00">OVNKubernetesSouthboundDatabaseInboundConnectionMissing</text>
</g>
<!-- OVNKubernetesSouthboundDatabaseClusterMemberError&#45;&gt;OVNKubernetesSouthboundDatabaseInboundConnectionMissing -->
<g id="edge14" class="edge">
<title>OVNKubernetesSouthboundDatabaseClusterMemberError&#45;&gt;OVNKubernetesSouthboundDatabaseInboundConnectionMissing</title>
<path fill="none" stroke="black" d="M1257.69,-215.53C1305.1,-210.42 1356.72,-204.85 1404.73,-199.67"/>
<polygon fill="black" stroke="black" points="1404.81,-203.18 1414.37,-198.63 1404.06,-196.22 1404.81,-203.18"/>
</g>
<!-- OVNKubernetesSouthboundDatabaseOutboundConnectionError -->
<g id="node17" class="node">
<title>OVNKubernetesSouthboundDatabaseOutboundConnectionError</title>
<polygon fill="none" stroke="black" points="2345,-252 1870,-252 1870,-216 2345,-216 2345,-252"/>
<text text-anchor="middle" x="2107.5" y="-230.3" font-family="Times,serif" font-size="14.00">OVNKubernetesSouthboundDatabaseOutboundConnectionError</text>
</g>
<!-- OVNKubernetesSouthboundDatabaseOutboundConnectionMissing&#45;&gt;OVNKubernetesSouthboundDatabaseOutboundConnectionError -->
<g id="edge15" class="edge">
<title>OVNKubernetesSouthboundDatabaseOutboundConnectionMissing&#45;&gt;OVNKubernetesSouthboundDatabaseOutboundConnectionError</title>
<path fill="none" stroke="black" d="M1834.49,-234C1842.47,-234 1850.47,-234 1858.46,-234"/>
<polygon fill="black" stroke="black" points="1858.23,-237.5 1868.23,-234 1858.23,-230.5 1858.23,-237.5"/>
</g>
<!-- OVNKubernetesSouthboundDatabaseInboundConnectionError -->
<g id="node18" class="node">
<title>OVNKubernetesSouthboundDatabaseInboundConnectionError</title>
<polygon fill="none" stroke="black" points="2339,-198 1876,-198 1876,-162 2339,-162 2339,-198"/>
<text text-anchor="middle" x="2107.5" y="-176.3" font-family="Times,serif" font-size="14.00">OVNKubernetesSouthboundDatabaseInboundConnectionError</text>
</g>
<!-- OVNKubernetesSouthboundDatabaseInboundConnectionMissing&#45;&gt;OVNKubernetesSouthboundDatabaseInboundConnectionError -->
<g id="edge16" class="edge">
<title>OVNKubernetesSouthboundDatabaseInboundConnectionMissing&#45;&gt;OVNKubernetesSouthboundDatabaseInboundConnectionError</title>
<path fill="none" stroke="black" d="M1828.44,-180C1840.37,-180 1852.35,-180 1864.29,-180"/>
<polygon fill="black" stroke="black" points="1864.21,-183.5 1874.21,-180 1864.21,-176.5 1864.21,-183.5"/>
</g>
<!-- NoOvnClusterManagerLeader -->
<g id="node19" class="node">
<title>NoOvnClusterManagerLeader</title>
<polygon fill="none" stroke="black" points="285,-333 54,-333 54,-297 285,-297 285,-333"/>
<text text-anchor="middle" x="169.5" y="-311.3" font-family="Times,serif" font-size="14.00">NoOvnClusterManagerLeader</text>
</g>
<!-- NoRunningOvnControlPlane -->
<g id="node20" class="node">
<title>NoRunningOvnControlPlane</title>
<polygon fill="none" stroke="black" points="711,-333 493,-333 493,-297 711,-297 711,-333"/>
<text text-anchor="middle" x="602" y="-311.3" font-family="Times,serif" font-size="14.00">NoRunningOvnControlPlane</text>
</g>
<!-- NoOvnClusterManagerLeader&#45;&gt;NoRunningOvnControlPlane -->
<g id="edge17" class="edge">
<title>NoOvnClusterManagerLeader&#45;&gt;NoRunningOvnControlPlane</title>
<path fill="none" stroke="black" d="M285.3,-315C345.92,-315 420.23,-315 481.53,-315"/>
<polygon fill="black" stroke="black" points="481.3,-318.5 491.3,-315 481.3,-311.5 481.3,-318.5"/>
</g>
<!-- V4SubnetAllocationThresholdExceeded -->
<g id="node21" class="node">
<title>V4SubnetAllocationThresholdExceeded</title>
<polygon fill="none" stroke="black" points="318,-387 21,-387 21,-351 318,-351 318,-387"/>
<text text-anchor="middle" x="169.5" y="-365.3" font-family="Times,serif" font-size="14.00">V4SubnetAllocationThresholdExceeded</text>
</g>
<!-- V6SubnetAllocationThresholdExceeded -->
<g id="node22" class="node">
<title>V6SubnetAllocationThresholdExceeded</title>
<polygon fill="none" stroke="black" points="318,-441 21,-441 21,-405 318,-405 318,-441"/>
<text text-anchor="middle" x="169.5" y="-419.3" font-family="Times,serif" font-size="14.00">V6SubnetAllocationThresholdExceeded</text>
</g>
<!-- NoOvnMasterLeader -->
<g id="node23" class="node">
<title>NoOvnMasterLeader</title>
<polygon fill="none" stroke="black" points="252.5,-495 86.5,-495 86.5,-459 252.5,-459 252.5,-495"/>
<text text-anchor="middle" x="169.5" y="-473.3" font-family="Times,serif" font-size="14.00">NoOvnMasterLeader</text>
</g>
<!-- OVNKubernetesNorthdInactive -->
<g id="node24" class="node">
<title>OVNKubernetesNorthdInactive</title>
<polygon fill="none" stroke="black" points="289.5,-549 49.5,-549 49.5,-513 289.5,-513 289.5,-549"/>
<text text-anchor="middle" x="169.5" y="-527.3" font-family="Times,serif" font-size="14.00">OVNKubernetesNorthdInactive</text>
</g>
<!-- OVNKubernetesNodePodAddError -->
<g id="node25" class="node">
<title>OVNKubernetesNodePodAddError</title>
<polygon fill="none" stroke="black" points="301,-603 38,-603 38,-567 301,-567 301,-603"/>
<text text-anchor="middle" x="169.5" y="-581.3" font-family="Times,serif" font-size="14.00">OVNKubernetesNodePodAddError</text>
</g>
<!-- OVNKubernetesNodePodDeleteError -->
<g id="node26" class="node">
<title>OVNKubernetesNodePodDeleteError</title>
<polygon fill="none" stroke="black" points="310,-657 29,-657 29,-621 310,-621 310,-657"/>
<text text-anchor="middle" x="169.5" y="-635.3" font-family="Times,serif" font-size="14.00">OVNKubernetesNodePodDeleteError</text>
</g>
<!-- NodeWithoutOVNKubeNodePodRunning -->
<g id="node27" class="node">
<title>NodeWithoutOVNKubeNodePodRunning</title>
<polygon fill="none" stroke="black" points="322,-711 17,-711 17,-675 322,-675 322,-711"/>
<text text-anchor="middle" x="169.5" y="-689.3" font-family="Times,serif" font-size="14.00">NodeWithoutOVNKubeNodePodRunning</text>
</g>
<!-- OVNKubernetesControllerDisconnectedSouthboundDatabase -->
<g id="node28" class="node">
<title>OVNKubernetesControllerDisconnectedSouthboundDatabase</title>
<polygon fill="none" stroke="black" points="829,-711 375,-711 375,-675 829,-675 829,-711"/>
<text text-anchor="middle" x="602" y="-689.3" font-family="Times,serif" font-size="14.00">OVNKubernetesControllerDisconnectedSouthboundDatabase</text>
</g>
<!-- NodeWithoutOVNKubeNodePodRunning&#45;&gt;OVNKubernetesControllerDisconnectedSouthboundDatabase -->
<g id="edge18" class="edge">
<title>NodeWithoutOVNKubeNodePodRunning&#45;&gt;OVNKubernetesControllerDisconnectedSouthboundDatabase</title>
<path fill="none" stroke="black" d="M322.28,-693C335.74,-693 349.58,-693 363.53,-693"/>
<polygon fill="black" stroke="black" points="363.23,-696.5 373.23,-693 363.23,-689.5 363.23,-696.5"/>
</g>
<!-- OVNKubernetesNodeOVSOverflowUserspace -->
<g id="node29" class="node">
<title>OVNKubernetesNodeOVSOverflowUserspace</title>
<polygon fill="none" stroke="black" points="339,-765 0,-765 0,-729 339,-729 339,-765"/>
<text text-anchor="middle" x="169.5" y="-743.3" font-family="Times,serif" font-size="14.00">OVNKubernetesNodeOVSOverflowUserspace</text>
</g>
<!-- OVNKubernetesNodeOVSOverflowKernel -->
<g id="node30" class="node">
<title>OVNKubernetesNodeOVSOverflowKernel</title>
<polygon fill="none" stroke="black" points="325,-819 14,-819 14,-783 325,-783 325,-819"/>
<text text-anchor="middle" x="169.5" y="-797.3" font-family="Times,serif" font-size="14.00">OVNKubernetesNodeOVSOverflowKernel</text>
</g>
<!-- OVNKubernetesResourceRetryFailure -->
<g id="node31" class="node">
<title>OVNKubernetesResourceRetryFailure</title>
<polygon fill="none" stroke="black" points="313.5,-873 25.5,-873 25.5,-837 313.5,-837 313.5,-873"/>
<text text-anchor="middle" x="169.5" y="-851.3" font-family="Times,serif" font-size="14.00">OVNKubernetesResourceRetryFailure</text>
</g>
</g>
</svg>
