<?xml version="1.0" encoding="UTF-8" standalone="no"?>
<!DOCTYPE svg PUBLIC "-//W3C//DTD SVG 1.1//EN"
 "http://www.w3.org/Graphics/SVG/1.1/DTD/svg11.dtd">
<!-- Generated by graphviz version 5.0.0 (0)
 -->
<!-- Title: G Pages: 1 -->
<svg width="2714pt" height="611pt"
 viewBox="0.00 0.00 2714.00 611.00" xmlns="http://www.w3.org/2000/svg" xmlns:xlink="http://www.w3.org/1999/xlink">
<g id="graph0" class="graph" transform="scale(1 1) rotate(0) translate(4 607)">
<title>G</title>
<polygon fill="white" stroke="transparent" points="-4,4 -4,-607 2710,-607 2710,4 -4,4"/>
<!-- NoOvnClusterManagerLeader -->
<g id="node1" class="node">
<title>NoOvnClusterManagerLeader</title>
<polygon fill="none" stroke="black" points="266,-63 48,-63 48,-27 266,-27 266,-63"/>
<text text-anchor="middle" x="157" y="-41.3" font-family="Times,serif" font-size="14.00">NoOvnClusterManagerLeader</text>
</g>
<!-- NoRunningOvnControlPlane -->
<g id="node2" class="node">
<title>NoRunningOvnControlPlane</title>
<polygon fill="none" stroke="black" points="666.5,-63 458.5,-63 458.5,-27 666.5,-27 666.5,-63"/>
<text text-anchor="middle" x="562.5" y="-41.3" font-family="Times,serif" font-size="14.00">NoRunningOvnControlPlane</text>
</g>
<!-- NoOvnClusterManagerLeader&#45;&gt;NoRunningOvnControlPlane -->
<g id="edge1" class="edge">
<title>NoOvnClusterManagerLeader&#45;&gt;NoRunningOvnControlPlane</title>
<path fill="none" stroke="black" d="M266.13,-45C322.4,-45 391.14,-45 448.15,-45"/>
<polygon fill="black" stroke="black" points="448.29,-48.5 458.29,-45 448.29,-41.5 448.29,-48.5"/>
</g>
<!-- NoOvnMasterLeader -->
<g id="node3" class="node">
<title>NoOvnMasterLeader</title>
<polygon fill="none" stroke="black" points="1097.5,-121 939.5,-121 939.5,-85 1097.5,-85 1097.5,-121"/>
<text text-anchor="middle" x="1018.5" y="-99.3" font-family="Times,serif" font-size="14.00">NoOvnMasterLeader</text>
</g>
<!-- NoRunningOvnMaster -->
<g id="node4" class="node">
<title>NoRunningOvnMaster</title>
<polygon fill="none" stroke="black" points="1576,-144 1409,-144 1409,-108 1576,-108 1576,-144"/>
<text text-anchor="middle" x="1492.5" y="-122.3" font-family="Times,serif" font-size="14.00">NoRunningOvnMaster</text>
</g>
<!-- NoOvnMasterLeader&#45;&gt;NoRunningOvnMaster -->
<g id="edge2" class="edge">
<title>NoOvnMasterLeader&#45;&gt;NoRunningOvnMaster</title>
<path fill="none" stroke="black" d="M1097.71,-106.81C1180.37,-110.84 1310.69,-117.19 1398.54,-121.47"/>
<polygon fill="black" stroke="black" points="1398.61,-124.98 1408.77,-121.97 1398.96,-117.99 1398.61,-124.98"/>
</g>
<!-- OVNKubernetesNorthdInactive -->
<g id="node5" class="node">
<title>OVNKubernetesNorthdInactive</title>
<polygon fill="none" stroke="black" points="675.5,-225 449.5,-225 449.5,-189 675.5,-189 675.5,-225"/>
<text text-anchor="middle" x="562.5" y="-203.3" font-family="Times,serif" font-size="14.00">OVNKubernetesNorthdInactive</text>
</g>
<!-- OVNKubernetesNorthdInactive&#45;&gt;NoRunningOvnMaster -->
<g id="edge3" class="edge">
<title>OVNKubernetesNorthdInactive&#45;&gt;NoRunningOvnMaster</title>
<path fill="none" stroke="black" d="M675.78,-210.25C808.05,-212.44 1034.11,-211.01 1226,-184 1242.33,-181.7 1245.93,-178.72 1262,-175 1306.92,-164.59 1356.98,-153.81 1398.85,-145.02"/>
<polygon fill="black" stroke="black" points="1399.69,-148.42 1408.76,-142.94 1398.25,-141.57 1399.69,-148.42"/>
</g>
<!-- NodeWithoutOVNKubeNodePodRunning -->
<g id="node6" class="node">
<title>NodeWithoutOVNKubeNodePodRunning</title>
<polygon fill="none" stroke="black" points="1162,-175 875,-175 875,-139 1162,-139 1162,-175"/>
<text text-anchor="middle" x="1018.5" y="-153.3" font-family="Times,serif" font-size="14.00">NodeWithoutOVNKubeNodePodRunning</text>
</g>
<!-- OVNKubernetesNorthdInactive&#45;&gt;NodeWithoutOVNKubeNodePodRunning -->
<g id="edge4" class="edge">
<title>OVNKubernetesNorthdInactive&#45;&gt;NodeWithoutOVNKubeNodePodRunning</title>
<path fill="none" stroke="black" d="M675.72,-194.64C732.69,-188.37 802.73,-180.65 864.55,-173.85"/>
<polygon fill="black" stroke="black" points="865.23,-177.29 874.79,-172.72 864.47,-170.33 865.23,-177.29"/>
</g>
<!-- OVNKubernetesControllerDisconnectedSouthboundDatabase -->
<g id="node7" class="node">
<title>OVNKubernetesControllerDisconnectedSouthboundDatabase</title>
<polygon fill="none" stroke="black" points="775,-171 350,-171 350,-135 775,-135 775,-171"/>
<text text-anchor="middle" x="562.5" y="-149.3" font-family="Times,serif" font-size="14.00">OVNKubernetesControllerDisconnectedSouthboundDatabase</text>
</g>
<!-- OVNKubernetesControllerDisconnectedSouthboundDatabase&#45;&gt;NodeWithoutOVNKubeNodePodRunning -->
<g id="edge5" class="edge">
<title>OVNKubernetesControllerDisconnectedSouthboundDatabase&#45;&gt;NodeWithoutOVNKubeNodePodRunning</title>
<path fill="none" stroke="black" d="M775.21,-154.87C805.41,-155.13 835.96,-155.4 864.73,-155.65"/>
<polygon fill="black" stroke="black" points="864.79,-159.15 874.82,-155.74 864.85,-152.15 864.79,-159.15"/>
</g>
<!-- NorthboundStale -->
<g id="node8" class="node">
<title>NorthboundStale</title>
<polygon fill="none" stroke="black" points="628.5,-117 496.5,-117 496.5,-81 628.5,-81 628.5,-117"/>
<text text-anchor="middle" x="562.5" y="-95.3" font-family="Times,serif" font-size="14.00">NorthboundStale</text>
</g>
<!-- NorthboundStale&#45;&gt;NoOvnMasterLeader -->
<g id="edge6" class="edge">
<title>NorthboundStale&#45;&gt;NoOvnMasterLeader</title>
<path fill="none" stroke="black" d="M628.55,-99.57C707.44,-100.27 840.78,-101.44 928.98,-102.22"/>
<polygon fill="black" stroke="black" points="929.21,-105.72 939.24,-102.31 929.27,-98.72 929.21,-105.72"/>
</g>
<!-- NorthboundStale&#45;&gt;NodeWithoutOVNKubeNodePodRunning -->
<g id="edge7" class="edge">
<title>NorthboundStale&#45;&gt;NodeWithoutOVNKubeNodePodRunning</title>
<path fill="none" stroke="black" d="M628.77,-107.33C670.57,-112.66 725.98,-119.74 775,-126 804.5,-129.77 836.03,-133.8 866.25,-137.66"/>
<polygon fill="black" stroke="black" points="866.08,-141.17 876.45,-138.96 866.97,-134.22 866.08,-141.17"/>
</g>
<!-- OVNKubernetesNorthboundDatabaseLeaderError -->
<g id="node9" class="node">
<title>OVNKubernetesNorthboundDatabaseLeaderError</title>
<polygon fill="none" stroke="black" points="1195,-67 842,-67 842,-31 1195,-31 1195,-67"/>
<text text-anchor="middle" x="1018.5" y="-45.3" font-family="Times,serif" font-size="14.00">OVNKubernetesNorthboundDatabaseLeaderError</text>
</g>
<!-- NorthboundStale&#45;&gt;OVNKubernetesNorthboundDatabaseLeaderError -->
<g id="edge8" class="edge">
<title>NorthboundStale&#45;&gt;OVNKubernetesNorthboundDatabaseLeaderError</title>
<path fill="none" stroke="black" d="M628.55,-91.84C684.63,-85.66 768.23,-76.45 843.57,-68.16"/>
<polygon fill="black" stroke="black" points="844.1,-71.62 853.66,-67.04 843.34,-64.66 844.1,-71.62"/>
</g>
<!-- OVNKubernetesNorthboundDatabaseMultipleLeadersError -->
<g id="node10" class="node">
<title>OVNKubernetesNorthboundDatabaseMultipleLeadersError</title>
<polygon fill="none" stroke="black" points="1700.5,-36 1284.5,-36 1284.5,0 1700.5,0 1700.5,-36"/>
<text text-anchor="middle" x="1492.5" y="-14.3" font-family="Times,serif" font-size="14.00">OVNKubernetesNorthboundDatabaseMultipleLeadersError</text>
</g>
<!-- OVNKubernetesNorthboundDatabaseLeaderError&#45;&gt;OVNKubernetesNorthboundDatabaseMultipleLeadersError -->
<g id="edge9" class="edge">
<title>OVNKubernetesNorthboundDatabaseLeaderError&#45;&gt;OVNKubernetesNorthboundDatabaseMultipleLeadersError</title>
<path fill="none" stroke="black" d="M1195.26,-37.46C1220.94,-35.77 1247.64,-34.02 1274.03,-32.28"/>
<polygon fill="black" stroke="black" points="1274.38,-35.77 1284.13,-31.62 1273.92,-28.78 1274.38,-35.77"/>
</g>
<!-- OVNKubernetesNorthboundDatabaseClusterMemberError -->
<g id="node11" class="node">
<title>OVNKubernetesNorthboundDatabaseClusterMemberError</title>
<polygon fill="none" stroke="black" points="1697.5,-90 1287.5,-90 1287.5,-54 1697.5,-54 1697.5,-90"/>
<text text-anchor="middle" x="1492.5" y="-68.3" font-family="Times,serif" font-size="14.00">OVNKubernetesNorthboundDatabaseClusterMemberError</text>
</g>
<!-- OVNKubernetesNorthboundDatabaseLeaderError&#45;&gt;OVNKubernetesNorthboundDatabaseClusterMemberError -->
<g id="edge10" class="edge">
<title>OVNKubernetesNorthboundDatabaseLeaderError&#45;&gt;OVNKubernetesNorthboundDatabaseClusterMemberError</title>
<path fill="none" stroke="black" d="M1195.26,-57.56C1221.98,-58.87 1249.82,-60.22 1277.25,-61.56"/>
<polygon fill="black" stroke="black" points="1277.18,-65.06 1287.34,-62.05 1277.52,-58.07 1277.18,-65.06"/>
</g>
<!-- OVNKubernetesNorthboundDatabaseClusterIDError -->
<g id="node12" class="node">
<title>OVNKubernetesNorthboundDatabaseClusterIDError</title>
<polygon fill="none" stroke="black" points="2174,-36 1806,-36 1806,0 2174,0 2174,-36"/>
<text text-anchor="middle" x="1990" y="-14.3" font-family="Times,serif" font-size="14.00">OVNKubernetesNorthboundDatabaseClusterIDError</text>
</g>
<!-- OVNKubernetesNorthboundDatabaseMultipleLeadersError&#45;&gt;OVNKubernetesNorthboundDatabaseClusterIDError -->
<g id="edge11" class="edge">
<title>OVNKubernetesNorthboundDatabaseMultipleLeadersError&#45;&gt;OVNKubernetesNorthboundDatabaseClusterIDError</title>
<path fill="none" stroke="black" d="M1700.77,-18C1732.23,-18 1764.6,-18 1795.75,-18"/>
<polygon fill="black" stroke="black" points="1795.82,-21.5 1805.82,-18 1795.82,-14.5 1795.82,-21.5"/>
</g>
<!-- OVNKubernetesNorthboundDatabaseOutboundConnectionMissing -->
<g id="node13" class="node">
<title>OVNKubernetesNorthboundDatabaseOutboundConnectionMissing</title>
<polygon fill="none" stroke="black" points="2221,-90 1759,-90 1759,-54 2221,-54 2221,-90"/>
<text text-anchor="middle" x="1990" y="-68.3" font-family="Times,serif" font-size="14.00">OVNKubernetesNorthboundDatabaseOutboundConnectionMissing</text>
</g>
<!-- OVNKubernetesNorthboundDatabaseClusterMemberError&#45;&gt;OVNKubernetesNorthboundDatabaseOutboundConnectionMissing -->
<g id="edge12" class="edge">
<title>OVNKubernetesNorthboundDatabaseClusterMemberError&#45;&gt;OVNKubernetesNorthboundDatabaseOutboundConnectionMissing</title>
<path fill="none" stroke="black" d="M1697.54,-72C1714.38,-72 1731.49,-72 1748.56,-72"/>
<polygon fill="black" stroke="black" points="1748.6,-75.5 1758.6,-72 1748.6,-68.5 1748.6,-75.5"/>
</g>
<!-- OVNKubernetesNorthboundDatabaseInboundConnectionMissing -->
<g id="node14" class="node">
<title>OVNKubernetesNorthboundDatabaseInboundConnectionMissing</title>
<polygon fill="none" stroke="black" points="2216,-144 1764,-144 1764,-108 2216,-108 2216,-144"/>
<text text-anchor="middle" x="1990" y="-122.3" font-family="Times,serif" font-size="14.00">OVNKubernetesNorthboundDatabaseInboundConnectionMissing</text>
</g>
<!-- OVNKubernetesNorthboundDatabaseClusterMemberError&#45;&gt;OVNKubernetesNorthboundDatabaseInboundConnectionMissing -->
<g id="edge13" class="edge">
<title>OVNKubernetesNorthboundDatabaseClusterMemberError&#45;&gt;OVNKubernetesNorthboundDatabaseInboundConnectionMissing</title>
<path fill="none" stroke="black" d="M1658.84,-90.02C1708.57,-95.44 1763.31,-101.4 1813.67,-106.89"/>
<polygon fill="black" stroke="black" points="1813.36,-110.38 1823.68,-107.98 1814.12,-103.42 1813.36,-110.38"/>
</g>
<!-- OVNKubernetesNorthboundDatabaseOutboundConnectionError -->
<g id="node15" class="node">
<title>OVNKubernetesNorthboundDatabaseOutboundConnectionError</title>
<polygon fill="none" stroke="black" points="2706,-90 2257,-90 2257,-54 2706,-54 2706,-90"/>
<text text-anchor="middle" x="2481.5" y="-68.3" font-family="Times,serif" font-size="14.00">OVNKubernetesNorthboundDatabaseOutboundConnectionError</text>
</g>
<!-- OVNKubernetesNorthboundDatabaseOutboundConnectionMissing&#45;&gt;OVNKubernetesNorthboundDatabaseOutboundConnectionError -->
<g id="edge14" class="edge">
<title>OVNKubernetesNorthboundDatabaseOutboundConnectionMissing&#45;&gt;OVNKubernetesNorthboundDatabaseOutboundConnectionError</title>
<path fill="none" stroke="black" d="M2221.06,-72C2229.62,-72 2238.21,-72 2246.78,-72"/>
<polygon fill="black" stroke="black" points="2246.82,-75.5 2256.82,-72 2246.82,-68.5 2246.82,-75.5"/>
</g>
<!-- OVNKubernetesNorthboundDatabaseInboundConnectionError -->
<g id="node16" class="node">
<title>OVNKubernetesNorthboundDatabaseInboundConnectionError</title>
<polygon fill="none" stroke="black" points="2700.5,-144 2262.5,-144 2262.5,-108 2700.5,-108 2700.5,-144"/>
<text text-anchor="middle" x="2481.5" y="-122.3" font-family="Times,serif" font-size="14.00">OVNKubernetesNorthboundDatabaseInboundConnectionError</text>
</g>
<!-- OVNKubernetesNorthboundDatabaseInboundConnectionMissing&#45;&gt;OVNKubernetesNorthboundDatabaseInboundConnectionError -->
<g id="edge15" class="edge">
<title>OVNKubernetesNorthboundDatabaseInboundConnectionMissing&#45;&gt;OVNKubernetesNorthboundDatabaseInboundConnectionError</title>
<path fill="none" stroke="black" d="M2216.05,-126C2228.12,-126 2240.25,-126 2252.32,-126"/>
<polygon fill="black" stroke="black" points="2252.45,-129.5 2262.45,-126 2252.45,-122.5 2252.45,-129.5"/>
</g>
<!-- SouthboundStale -->
<g id="node17" class="node">
<title>SouthboundStale</title>
<polygon fill="none" stroke="black" points="222.5,-225 91.5,-225 91.5,-189 222.5,-189 222.5,-225"/>
<text text-anchor="middle" x="157" y="-203.3" font-family="Times,serif" font-size="14.00">SouthboundStale</text>
</g>
<!-- SouthboundStale&#45;&gt;OVNKubernetesNorthdInactive -->
<g id="edge16" class="edge">
<title>SouthboundStale&#45;&gt;OVNKubernetesNorthdInactive</title>
<path fill="none" stroke="black" d="M222.83,-207C280.9,-207 367.63,-207 438.78,-207"/>
<polygon fill="black" stroke="black" points="439.16,-210.5 449.16,-207 439.16,-203.5 439.16,-210.5"/>
</g>
<!-- SouthboundStale&#45;&gt;NorthboundStale -->
<g id="edge17" class="edge">
<title>SouthboundStale&#45;&gt;NorthboundStale</title>
<path fill="none" stroke="black" d="M192.72,-188.94C230.41,-170.16 292.88,-141.38 350,-126 394.32,-114.06 445.32,-107.36 486.14,-103.61"/>
<polygon fill="black" stroke="black" points="486.63,-107.08 496.29,-102.72 486.02,-100.11 486.63,-107.08"/>
</g>
<!-- OVNKubernetesSouthboundDatabaseLeaderError -->
<g id="node18" class="node">
<title>OVNKubernetesSouthboundDatabaseLeaderError</title>
<polygon fill="none" stroke="black" points="738.5,-279 386.5,-279 386.5,-243 738.5,-243 738.5,-279"/>
<text text-anchor="middle" x="562.5" y="-257.3" font-family="Times,serif" font-size="14.00">OVNKubernetesSouthboundDatabaseLeaderError</text>
</g>
<!-- SouthboundStale&#45;&gt;OVNKubernetesSouthboundDatabaseLeaderError -->
<g id="edge18" class="edge">
<title>SouthboundStale&#45;&gt;OVNKubernetesSouthboundDatabaseLeaderError</title>
<path fill="none" stroke="black" d="M222.85,-216.33C260.05,-221.63 307.63,-228.32 350,-234 368.91,-236.54 388.78,-239.15 408.45,-241.7"/>
<polygon fill="black" stroke="black" points="408.04,-245.17 418.4,-242.98 408.94,-238.23 408.04,-245.17"/>
</g>
<!-- OVNKubernetesSouthboundDatabaseMultipleLeadersError -->
<g id="node19" class="node">
<title>OVNKubernetesSouthboundDatabaseMultipleLeadersError</title>
<polygon fill="none" stroke="black" points="1226,-328 811,-328 811,-292 1226,-292 1226,-328"/>
<text text-anchor="middle" x="1018.5" y="-306.3" font-family="Times,serif" font-size="14.00">OVNKubernetesSouthboundDatabaseMultipleLeadersError</text>
</g>
<!-- OVNKubernetesSouthboundDatabaseLeaderError&#45;&gt;OVNKubernetesSouthboundDatabaseMultipleLeadersError -->
<g id="edge19" class="edge">
<title>OVNKubernetesSouthboundDatabaseLeaderError&#45;&gt;OVNKubernetesSouthboundDatabaseMultipleLeadersError</title>
<path fill="none" stroke="black" d="M730.3,-279C766.13,-282.87 804.13,-286.97 840.35,-290.88"/>
<polygon fill="black" stroke="black" points="840.19,-294.38 850.51,-291.98 840.94,-287.42 840.19,-294.38"/>
</g>
<!-- OVNKubernetesSouthboundDatabaseClusterMemberError -->
<g id="node20" class="node">
<title>OVNKubernetesSouthboundDatabaseClusterMemberError</title>
<polygon fill="none" stroke="black" points="1223,-274 814,-274 814,-238 1223,-238 1223,-274"/>
<text text-anchor="middle" x="1018.5" y="-252.3" font-family="Times,serif" font-size="14.00">OVNKubernetesSouthboundDatabaseClusterMemberError</text>
</g>
<!-- OVNKubernetesSouthboundDatabaseLeaderError&#45;&gt;OVNKubernetesSouthboundDatabaseClusterMemberError -->
<g id="edge20" class="edge">
<title>OVNKubernetesSouthboundDatabaseLeaderError&#45;&gt;OVNKubernetesSouthboundDatabaseClusterMemberError</title>
<path fill="none" stroke="black" d="M738.7,-259.07C760.03,-258.84 782,-258.59 803.8,-258.35"/>
<polygon fill="black" stroke="black" points="803.85,-261.85 813.81,-258.24 803.77,-254.85 803.85,-261.85"/>
</g>
<!-- OVNKubernetesSouthboundDatabaseClusterIDError -->
<g id="node21" class="node">
<title>OVNKubernetesSouthboundDatabaseClusterIDError</title>
<polygon fill="none" stroke="black" points="1676.5,-328 1308.5,-328 1308.5,-292 1676.5,-292 1676.5,-328"/>
<text text-anchor="middle" x="1492.5" y="-306.3" font-family="Times,serif" font-size="14.00">OVNKubernetesSouthboundDatabaseClusterIDError</text>
</g>
<!-- OVNKubernetesSouthboundDatabaseMultipleLeadersError&#45;&gt;OVNKubernetesSouthboundDatabaseClusterIDError -->
<g id="edge21" class="edge">
<title>OVNKubernetesSouthboundDatabaseMultipleLeadersError&#45;&gt;OVNKubernetesSouthboundDatabaseClusterIDError</title>
<path fill="none" stroke="black" d="M1226.18,-310C1250.15,-310 1274.53,-310 1298.3,-310"/>
<polygon fill="black" stroke="black" points="1298.45,-313.5 1308.45,-310 1298.45,-306.5 1298.45,-313.5"/>
</g>
<!-- OVNKubernetesSouthboundDatabaseOutboundConnectionMissing -->
<g id="node22" class="node">
<title>OVNKubernetesSouthboundDatabaseOutboundConnectionMissing</title>
<polygon fill="none" stroke="black" points="1723,-274 1262,-274 1262,-238 1723,-238 1723,-274"/>
<text text-anchor="middle" x="1492.5" y="-252.3" font-family="Times,serif" font-size="14.00">OVNKubernetesSouthboundDatabaseOutboundConnectionMissing</text>
</g>
<!-- OVNKubernetesSouthboundDatabaseClusterMemberError&#45;&gt;OVNKubernetesSouthboundDatabaseOutboundConnectionMissing -->
<g id="edge22" class="edge">
<title>OVNKubernetesSouthboundDatabaseClusterMemberError&#45;&gt;OVNKubernetesSouthboundDatabaseOutboundConnectionMissing</title>
<path fill="none" stroke="black" d="M1223.1,-256C1232.63,-256 1242.24,-256 1251.86,-256"/>
<polygon fill="black" stroke="black" points="1251.88,-259.5 1261.88,-256 1251.88,-252.5 1251.88,-259.5"/>
</g>
<!-- OVNKubernetesSouthboundDatabaseInboundConnectionMissing -->
<g id="node23" class="node">
<title>OVNKubernetesSouthboundDatabaseInboundConnectionMissing</title>
<polygon fill="none" stroke="black" points="1718,-220 1267,-220 1267,-184 1718,-184 1718,-220"/>
<text text-anchor="middle" x="1492.5" y="-198.3" font-family="Times,serif" font-size="14.00">OVNKubernetesSouthboundDatabaseInboundConnectionMissing</text>
</g>
<!-- OVNKubernetesSouthboundDatabaseClusterMemberError&#45;&gt;OVNKubernetesSouthboundDatabaseInboundConnectionMissing -->
<g id="edge23" class="edge">
<title>OVNKubernetesSouthboundDatabaseClusterMemberError&#45;&gt;OVNKubernetesSouthboundDatabaseInboundConnectionMissing</title>
<path fill="none" stroke="black" d="M1177,-237.98C1224.18,-232.58 1276.08,-226.65 1323.88,-221.18"/>
<polygon fill="black" stroke="black" points="1324.48,-224.63 1334.02,-220.02 1323.68,-217.68 1324.48,-224.63"/>
</g>
<!-- OVNKubernetesSouthboundDatabaseOutboundConnectionError -->
<g id="node24" class="node">
<title>OVNKubernetesSouthboundDatabaseOutboundConnectionError</title>
<polygon fill="none" stroke="black" points="2214,-274 1766,-274 1766,-238 2214,-238 2214,-274"/>
<text text-anchor="middle" x="1990" y="-252.3" font-family="Times,serif" font-size="14.00">OVNKubernetesSouthboundDatabaseOutboundConnectionError</text>
</g>
<!-- OVNKubernetesSouthboundDatabaseOutboundConnectionMissing&#45;&gt;OVNKubernetesSouthboundDatabaseOutboundConnectionError -->
<g id="edge24" class="edge">
<title>OVNKubernetesSouthboundDatabaseOutboundConnectionMissing&#45;&gt;OVNKubernetesSouthboundDatabaseOutboundConnectionError</title>
<path fill="none" stroke="black" d="M1723.12,-256C1733.86,-256 1744.65,-256 1755.4,-256"/>
<polygon fill="black" stroke="black" points="1755.7,-259.5 1765.7,-256 1755.7,-252.5 1755.7,-259.5"/>
</g>
<!-- OVNKubernetesSouthboundDatabaseInboundConnectionError -->
<g id="node25" class="node">
<title>OVNKubernetesSouthboundDatabaseInboundConnectionError</title>
<polygon fill="none" stroke="black" points="2208.5,-220 1771.5,-220 1771.5,-184 2208.5,-184 2208.5,-220"/>
<text text-anchor="middle" x="1990" y="-198.3" font-family="Times,serif" font-size="14.00">OVNKubernetesSouthboundDatabaseInboundConnectionError</text>
</g>
<!-- OVNKubernetesSouthboundDatabaseInboundConnectionMissing&#45;&gt;OVNKubernetesSouthboundDatabaseInboundConnectionError -->
<g id="edge25" class="edge">
<title>OVNKubernetesSouthboundDatabaseInboundConnectionMissing&#45;&gt;OVNKubernetesSouthboundDatabaseInboundConnectionError</title>
<path fill="none" stroke="black" d="M1718.05,-202C1732.27,-202 1746.59,-202 1760.82,-202"/>
<polygon fill="black" stroke="black" points="1761.17,-205.5 1771.17,-202 1761.17,-198.5 1761.17,-205.5"/>
</g>
<!-- V4SubnetAllocationThresholdExceeded -->
<g id="node26" class="node">
<title>V4SubnetAllocationThresholdExceeded</title>
<polygon fill="none" stroke="black" points="297,-279 17,-279 17,-243 297,-243 297,-279"/>
<text text-anchor="middle" x="157" y="-257.3" font-family="Times,serif" font-size="14.00">V4SubnetAllocationThresholdExceeded</text>
</g>
<!-- V6SubnetAllocationThresholdExceeded -->
<g id="node27" class="node">
<title>V6SubnetAllocationThresholdExceeded</title>
<polygon fill="none" stroke="black" points="297,-333 17,-333 17,-297 297,-297 297,-333"/>
<text text-anchor="middle" x="157" y="-311.3" font-family="Times,serif" font-size="14.00">V6SubnetAllocationThresholdExceeded</text>
</g>
<!-- OVNKubernetesNodePodAddError -->
<g id="node28" class="node">
<title>OVNKubernetesNodePodAddError</title>
<polygon fill="none" stroke="black" points="280,-387 34,-387 34,-351 280,-351 280,-387"/>
<text text-anchor="middle" x="157" y="-365.3" font-family="Times,serif" font-size="14.00">OVNKubernetesNodePodAddError</text>
</g>
<!-- OVNKubernetesNodePodDeleteError -->
<g id="node29" class="node">
<title>OVNKubernetesNodePodDeleteError</title>
<polygon fill="none" stroke="black" points="288.5,-441 25.5,-441 25.5,-405 288.5,-405 288.5,-441"/>
<text text-anchor="middle" x="157" y="-419.3" font-family="Times,serif" font-size="14.00">OVNKubernetesNodePodDeleteError</text>
</g>
<!-- OVNKubernetesNodeOVSOverflowUserspace -->
<g id="node30" class="node">
<title>OVNKubernetesNodeOVSOverflowUserspace</title>
<polygon fill="none" stroke="black" points="314,-495 0,-495 0,-459 314,-459 314,-495"/>
<text text-anchor="middle" x="157" y="-473.3" font-family="Times,serif" font-size="14.00">OVNKubernetesNodeOVSOverflowUserspace</text>
</g>
<!-- OVNKubernetesNodeOVSOverflowKernel -->
<g id="node31" class="node">
<title>OVNKubernetesNodeOVSOverflowKernel</title>
<polygon fill="none" stroke="black" points="303,-549 11,-549 11,-513 303,-513 303,-549"/>
<text text-anchor="middle" x="157" y="-527.3" font-family="Times,serif" font-size="14.00">OVNKubernetesNodeOVSOverflowKernel</text>
</g>
<!-- OVNKubernetesResourceRetryFailure -->
<g id="node32" class="node">
<title>OVNKubernetesResourceRetryFailure</title>
<polygon fill="none" stroke="black" points="291.5,-603 22.5,-603 22.5,-567 291.5,-567 291.5,-603"/>
<text text-anchor="middle" x="157" y="-581.3" font-family="Times,serif" font-size="14.00">OVNKubernetesResourceRetryFailure</text>
</g>
</g>
</svg>
